<?xml version="1.0" standalone="no"?>
<!DOCTYPE svg PUBLIC "-//W3C//DTD SVG 20010904//EN"
 "http://www.w3.org/TR/2001/REC-SVG-20010904/DTD/svg10.dtd">
<svg version="1.0" xmlns="http://www.w3.org/2000/svg"
 width="6543.000000pt" height="5519.000000pt" viewBox="0 0 6543.000000 5519.000000"
 preserveAspectRatio="xMidYMid meet">
<metadata>
Created by potrace 1.16, written by Peter Selinger 2001-2019
</metadata>
<g transform="translate(0.000000,5519.000000) scale(0.100000,-0.100000)"
fill="#000000" stroke="none">
<path d="M29650 34181 c23 -7 22 -8 -15 -15 -21 -4 -52 -14 -67 -22 -16 -8
-34 -12 -40 -8 -7 4 -8 3 -4 -4 8 -13 -28 -35 -39 -24 -5 4 -5 2 -1 -5 3 -6
-7 -28 -25 -47 -49 -57 -69 -122 -69 -229 0 -123 19 -175 90 -248 40 -41 71
-62 113 -78 l58 -21 2562 2 2562 3 53 24 c68 30 141 110 167 182 28 76 27 215
-3 281 -44 101 -118 164 -222 192 l-55 14 40 4 c22 3 -1123 5 -2545 5 -1422 1
-2574 -2 -2560 -6z"/>
</g>
</svg>
